<?xml version="1.0" standalone="no"?>
<!DOCTYPE svg PUBLIC "-//W3C//DTD SVG 20010904//EN"
 "http://www.w3.org/TR/2001/REC-SVG-20010904/DTD/svg10.dtd">
<svg version="1.0" xmlns="http://www.w3.org/2000/svg"
 width="960.000000pt" height="960.000000pt" viewBox="0 0 960.000000 960.000000"
 preserveAspectRatio="xMidYMid meet">
<metadata>
Created by potrace 1.11, written by Peter Selinger 2001-2013
</metadata>
<g transform="translate(0.000000,960.000000) scale(0.100000,-0.100000)"
fill="#000000" stroke="none">
<path d="M5740 9500 c-377 -45 -647 -356 -820 -946 -123 -420 -231 -1214 -308
-2263 l-17 -234 -95 -19 c-210 -42 -419 -154 -571 -307 -168 -169 -272 -372
-314 -616 -18 -104 -21 -329 -6 -425 72 -445 380 -803 799 -930 l72 -22 0 -52
c0 -29 -7 -182 -15 -342 -52 -1009 -115 -1732 -185 -2124 -66 -365 -193 -711
-304 -825 -57 -58 -92 -71 -161 -60 -86 12 -139 68 -177 187 l-22 69 -106 -3
-105 -3 -20 -233 c-18 -209 -19 -235 -5 -242 66 -35 152 -52 290 -57 138 -5
149 -4 225 21 252 85 454 344 623 796 201 538 324 1333 427 2757 l7 92 47 7
c75 11 245 70 334 116 296 154 516 440 592 766 39 165 37 414 -4 587 -68 285
-226 517 -458 672 -95 63 -227 124 -322 149 -37 9 -70 21 -75 25 -23 21 78
1625 135 2129 67 600 191 934 380 1030 53 28 143 37 195 20 77 -24 134 -110
134 -202 l0 -28 120 0 c66 0 120 3 120 8 0 4 9 102 20 217 11 116 20 213 20
216 0 3 -29 16 -64 27 -114 37 -274 55 -386 42z m-1165 -3777 c-12 -121 -56
-1055 -71 -1491 -5 -150 -10 -205 -19 -209 -7 -2 -47 11 -88 30 -189 87 -333
232 -427 428 -56 119 -81 220 -87 369 -19 434 208 781 592 906 106 35 107 35
100 -33z m560 6 c206 -85 373 -252 460 -458 55 -130 70 -215 69 -391 -1 -137
-4 -165 -27 -241 -35 -116 -67 -187 -123 -270 -113 -170 -296 -305 -491 -362
-53 -16 -53 -16 -53 7 0 12 7 148 15 302 13 252 33 728 51 1252 4 105 11 192
16 192 5 0 43 -14 83 -31z"/>
</g>
</svg>
