<!DOCTYPE svg PUBLIC "-//W3C//DTD SVG 20010904//EN" "http://www.w3.org/TR/2001/REC-SVG-20010904/DTD/svg10.dtd">
<svg version="1.0" xmlns="http://www.w3.org/2000/svg" width="1600px" height="250px" viewBox="0 0 16000 2500" preserveAspectRatio="xMidYMid meet">
<g id="layer102" fill="#ffffff" stroke="none">
 <path d="M13290 2422 c-42 -21 -62 -57 -55 -96 17 -95 132 -137 166 -62 10 21 8 31 -10 62 -25 42 -17 58 22 49 55 -14 107 -91 145 -215 11 -36 110 -429 221 -875 111 -445 211 -839 223 -875 45 -143 128 -266 211 -315 126 -73 287 -44 287 51 0 68 -51 124 -113 124 -28 0 -57 -28 -57 -55 0 -10 9 -33 21 -51 18 -30 19 -35 5 -40 -50 -19 -112 38 -155 140 -16 40 -123 443 -241 916 -116 465 -220 874 -232 910 -53 166 -148 290 -253 329 -68 26 -138 27 -185 3z"/>
 <path d="M2109 2108 c26 -57 94 -203 150 -324 l102 -222 -224 -333 c-123 -184 -227 -340 -231 -346 -6 -10 24 -13 136 -13 l144 0 144 215 c79 118 147 212 151 208 4 -5 50 -100 103 -213 l95 -205 130 -3 c72 -1 131 0 131 3 0 4 -371 812 -572 1248 l-41 87 -133 0 -133 0 48 -102z"/>
 <path d="M3223 1816 c-70 -23 -128 -62 -187 -128 -31 -34 -56 -64 -56 -68 0 -3 45 -28 99 -55 l99 -48 35 30 c44 38 98 57 141 49 33 -6 86 -46 86 -65 0 -28 -56 -71 -139 -105 -176 -73 -248 -137 -271 -241 -37 -165 93 -319 281 -333 104 -7 213 35 329 129 l32 26 -86 76 -85 76 -51 -34 c-58 -39 -107 -51 -153 -38 -24 6 -33 15 -35 35 -4 30 23 52 108 87 155 65 253 145 278 228 44 147 -32 297 -184 365 -61 27 -180 34 -241 14z"/>
 <path d="M4557 1819 c-124 -29 -263 -142 -322 -263 -48 -95 -62 -184 -46 -284 52 -340 407 -519 734 -370 l47 21 0 143 0 143 -57 -35 c-137 -82 -255 -100 -349 -51 -90 46 -134 116 -134 212 0 71 20 119 72 172 96 98 227 94 390 -10 29 -18 59 -37 66 -41 9 -6 12 25 12 139 l0 146 -62 29 c-119 55 -248 73 -351 49z"/>
 <path d="M5243 1816 c-65 -21 -124 -60 -174 -113 -81 -86 -82 -82 31 -138 l98 -48 36 31 c52 45 107 60 159 41 25 -8 47 -25 56 -41 15 -26 14 -29 -13 -56 -15 -17 -67 -46 -118 -67 -194 -81 -269 -161 -269 -289 0 -113 56 -202 159 -253 50 -24 69 -28 147 -28 77 0 98 4 149 28 62 29 187 113 185 125 0 4 -38 39 -83 78 l-82 72 -56 -35 c-62 -38 -118 -50 -161 -34 -23 9 -28 16 -25 39 3 24 18 35 141 97 213 108 264 171 255 317 -3 42 -12 88 -22 107 -27 51 -104 124 -161 150 -62 30 -188 38 -252 17z"/>
 <path d="M7018 1811 c-72 -23 -147 -78 -193 -140 -19 -27 -35 -52 -35 -56 0 -3 43 -26 95 -51 l96 -44 32 24 c78 59 147 68 201 25 54 -43 22 -90 -94 -139 -223 -92 -285 -158 -285 -300 0 -87 20 -132 82 -192 78 -76 213 -107 324 -75 53 16 153 74 211 123 l28 22 -87 75 -86 75 -52 -34 c-79 -53 -161 -58 -186 -13 -17 32 18 61 130 109 189 81 269 170 271 301 1 106 -78 222 -187 275 -73 36 -182 43 -265 15z"/>
 <path d="M8662 1815 c-65 -18 -96 -34 -156 -80 l-46 -35 0 55 0 55 -125 0 -125 0 0 -715 0 -715 125 0 125 0 0 295 0 295 50 -39 c73 -57 135 -76 255 -76 87 0 107 4 155 26 318 149 387 572 135 824 -77 77 -165 117 -263 122 -47 2 -97 -3 -130 -12z m151 -254 c90 -56 131 -125 131 -226 0 -104 -47 -178 -147 -232 -45 -25 -159 -24 -211 2 -52 25 -104 78 -127 129 -22 49 -25 152 -5 200 27 65 92 123 166 147 45 15 155 4 193 -20z"/>
 <path d="M9693 1815 c-132 -36 -254 -136 -311 -256 -134 -281 18 -617 313 -694 237 -61 484 65 574 292 18 47 41 173 41 229 l0 24 -365 0 c-246 0 -365 3 -365 10 0 28 45 93 82 120 119 87 261 73 377 -35 l50 -46 90 67 c72 55 88 71 81 84 -20 38 -143 141 -202 168 -107 51 -256 66 -365 37z m318 -632 c-44 -83 -193 -124 -292 -81 -38 17 -109 74 -109 89 0 5 91 9 205 9 193 0 205 -1 196 -17z"/>
 <path d="M10770 1814 c-78 -21 -128 -53 -197 -128 -102 -109 -138 -213 -131 -382 3 -89 7 -107 41 -177 47 -101 136 -196 223 -238 128 -63 297 -47 412 41 29 22 55 40 57 40 3 0 5 -22 5 -50 l0 -50 125 0 125 0 0 470 0 470 -125 0 -125 0 0 -56 0 -55 -47 39 c-58 48 -82 61 -148 78 -64 18 -145 17 -215 -2z m301 -250 c114 -63 163 -200 114 -322 -21 -52 -99 -124 -153 -140 -127 -38 -269 26 -318 144 -17 39 -18 141 -3 181 55 149 222 212 360 137z"/>
 <path d="M11907 1820 c-111 -28 -209 -110 -260 -218 l-32 -67 -3 -332 -3 -333 125 0 126 0 0 289 c0 188 4 300 11 322 47 140 255 140 297 1 8 -26 12 -136 12 -326 l0 -286 126 0 125 0 -3 328 c-3 318 -4 329 -27 387 -34 84 -133 183 -216 215 -67 26 -212 36 -278 20z"/>
 <path d="M14460 1817 c-102 -30 -176 -83 -228 -164 -58 -91 -62 -124 -62 -470 l0 -313 125 0 125 0 0 297 c0 275 1 300 20 338 37 76 130 104 210 63 83 -43 85 -49 88 -395 l3 -303 125 0 124 0 0 303 c0 329 -6 377 -56 463 -38 64 -125 139 -192 164 -71 28 -216 36 -282 17z"/>
 <path d="M15721 1820 c-92 -21 -154 -123 -130 -212 20 -77 89 -130 169 -130 99 0 172 73 172 172 0 113 -101 194 -211 170z"/>
 <path d="M20 1105 l0 -705 188 0 c222 1 315 15 418 64 321 152 321 558 0 716 -88 44 -200 70 -297 70 l-59 0 0 280 0 280 -125 0 -125 0 0 -705z m347 -86 c183 -25 267 -111 233 -238 -25 -94 -96 -136 -252 -148 l-78 -6 0 202 c0 117 4 201 9 201 5 0 45 -5 88 -11z"/>
 <path d="M1000 1095 l0 -715 125 0 125 0 0 290 0 290 48 -37 c74 -57 106 -67 212 -67 115 -1 151 15 228 99 80 87 82 99 82 507 l0 348 -125 0 -125 0 0 -321 c0 -218 -4 -327 -11 -342 -34 -65 -88 -88 -156 -67 -58 19 -98 54 -127 112 l-26 52 0 283 0 283 -125 0 -125 0 0 -715z"/>
 <path d="M3800 1340 l0 -470 125 0 125 0 0 470 0 470 -125 0 -125 0 0 -470z"/>
 <path d="M6410 1340 l0 -470 125 0 125 0 0 470 0 470 -125 0 -125 0 0 -470z"/>
 <path d="M12640 1460 l0 -350 -70 0 -70 0 0 -120 0 -120 70 0 70 0 0 -125 0 -125 125 0 125 0 0 125 0 124 93 3 92 3 0 115 0 115 -92 3 -93 3 0 349 0 350 -125 0 -125 0 0 -350z"/>
 <path d="M13190 1340 l0 -471 123 3 122 3 0 465 0 465 -122 3 -123 3 0 -471z"/>
 <path d="M15170 1095 l0 -715 125 0 125 0 0 715 0 715 -125 0 -125 0 0 -715z"/>
 <path d="M3845 776 c-67 -29 -103 -103 -92 -186 21 -155 250 -189 323 -48 33 64 16 155 -38 205 -46 43 -131 56 -193 29z"/>
 <path d="M6465 776 c-17 -7 -45 -29 -62 -49 -121 -138 52 -343 216 -255 121 65 119 244 -2 302 -42 19 -110 20 -152 2z"/>
 <path d="M13240 779 c-62 -26 -100 -85 -100 -154 0 -97 64 -165 163 -172 174 -12 246 205 104 311 -31 23 -128 32 -167 15z"/>
 </g>

</svg>